<svg width="16" height="16" viewBox="0 0 16 16" fill="currentColor" xmlns="http://www.w3.org/2000/svg">
<path d="M2.66667 9.33366V8.00033H7.33334V9.33366H2.66667ZM2.66667 6.66699V5.33366H10V6.66699H2.66667ZM2.66667 4.00033V2.66699H10V4.00033H2.66667ZM8.66667 13.3337V11.2837L12.35 7.61699C12.45 7.51699 12.5611 7.44477 12.6833 7.40033C12.8056 7.35588 12.9278 7.33366 13.05 7.33366C13.1833 7.33366 13.3111 7.35866 13.4333 7.40866C13.5556 7.45866 13.6667 7.53366 13.7667 7.63366L14.3833 8.25033C14.4722 8.35033 14.5417 8.46144 14.5917 8.58366C14.6417 8.70588 14.6667 8.8281 14.6667 8.95033C14.6667 9.07255 14.6445 9.19755 14.6 9.32533C14.5556 9.4531 14.4833 9.56699 14.3833 9.66699L10.7167 13.3337H8.66667ZM9.66667 12.3337H10.3L12.3167 10.3003L12.0167 9.98366L11.7 9.68366L9.66667 11.7003V12.3337ZM12.0167 9.98366L11.7 9.68366L12.3167 10.3003L12.0167 9.98366Z" fill="inherit"/>
</svg>
