<svg width="189" height="40" viewBox="0 0 189 40" fill="none" xmlns="http://www.w3.org/2000/svg">
<path d="M0 0.176831H9.79343V21.8197H31.6435V28.9792H0V14.578L6.72417 19.2128L0 7.37742V0.176831Z" fill="#BF00FF"/>
<path d="M30.5241 0.0945396H58.9168V6.63679H40.2352V10.916H58.3819V17.4994H40.2352V22.2312H62.6614V28.938H30.5241V0.0945396Z" fill="#BF00FF"/>
<path d="M96.2976 0.0945396H122.094V6.63679H103.86V10.916H121.677V17.4994H103.86V22.2312H125.651V28.938H96.2976V0.0945396Z" fill="#BF00FF"/>
<path d="M125.513 0.176838H136.459L150.326 6.14304V0.176838H156.745V28.9792H150.326L135.183 21.614V28.9792H125.513V0.176838Z" fill="#BF00FF"/>
<path d="M61.9414 28.9445V22.4605V0H97.7415V7.07346H73.5839V22.4605H93.6267V39.26H81.8368V28.9445H61.9414Z" fill="#BF00FF"/>
<path d="M188.061 6.33175V12.0026L182.208 19.5124L188.061 17.6735V29.0153H160.367V6.33175H155.76V0.330772H175.77L188.061 6.33175ZM167.808 11.5261V20.9216H176.012V11.5261H167.808Z" fill="#BF00FF"/>
</svg>
